<svg width="60.000000" height="58.125000" viewBox="0 0 60 58.125" fill="none" xmlns="http://www.w3.org/2000/svg" xmlns:xlink="http://www.w3.org/1999/xlink">
	<desc>
			Created with Pixso.
	</desc>
	<defs/>
	<path id="Vector" d="M56.78 20.32C55.99 17.87 56.33 14.19 54.27 11.35C52.2 8.48 48.59 7.67 46.55 6.18C44.54 4.7 42.66 1.5 39.27 0.39C35.98 -0.68 32.61 0.77 30 0.77C27.38 0.77 24.01 -0.68 20.72 0.39C17.33 1.5 15.45 4.7 13.44 6.18C11.4 7.67 7.79 8.48 5.72 11.35C3.67 14.18 4 17.87 3.21 20.32C2.46 22.65 0 25.44 0 29.06C0 32.68 2.45 35.46 3.21 37.8C4 40.25 3.66 43.93 5.72 46.77C7.79 49.63 11.4 50.45 13.44 51.94C15.45 53.41 17.33 56.62 20.72 57.73C24.01 58.8 27.39 57.34 30 57.34C32.6 57.34 35.98 58.8 39.27 57.73C42.66 56.62 44.54 53.41 46.55 51.94C48.59 50.45 52.2 49.63 54.27 46.77C56.32 43.93 55.99 40.24 56.78 37.8C57.53 35.47 60 32.68 60 29.06C60 25.44 57.54 22.66 56.78 20.32ZM52.32 36.36C51.4 39.21 51.64 42.41 50.47 44.02C49.29 45.65 46.18 46.4 43.78 48.15C41.41 49.89 39.75 52.64 37.82 53.27C35.99 53.87 33.01 52.65 30 52.65C26.96 52.65 24.01 53.87 22.17 53.27C20.24 52.64 18.58 49.89 16.21 48.15C13.82 46.41 10.7 45.65 9.52 44.02C8.35 42.41 8.59 39.2 7.67 36.36C6.77 33.57 4.68 31.16 4.68 29.06C4.68 26.95 6.77 24.55 7.67 21.76C8.59 18.9 8.35 15.71 9.52 14.1C10.7 12.46 13.81 11.71 16.21 9.96C18.59 8.22 20.24 5.48 22.17 4.85C24 4.25 26.99 5.46 29.99 5.46C33.03 5.46 35.98 4.25 37.82 4.85C39.75 5.48 41.41 8.23 43.78 9.96C46.17 11.71 49.29 12.47 50.47 14.1C51.64 15.7 51.4 18.92 52.32 21.76L52.32 21.76C53.22 24.54 55.31 26.95 55.31 29.06C55.31 31.17 53.22 33.57 52.32 36.36ZM40.79 21.54C41.71 22.45 41.71 23.93 40.79 24.85L29.06 36.58C28.15 37.5 26.66 37.5 25.75 36.58L19.2 30.03C18.28 29.12 18.28 27.63 19.2 26.72C20.11 25.8 21.6 25.8 22.51 26.72L27.4 31.61L37.48 21.54C38.39 20.62 39.88 20.62 40.79 21.54Z" fill="#242424" fill-opacity="1.000000" fill-rule="nonzero"/>
</svg>
