<svg width="52.771763" height="60.000000" viewBox="0 0 52.7718 60" fill="none" xmlns="http://www.w3.org/2000/svg" xmlns:xlink="http://www.w3.org/1999/xlink">
	<desc>
			Created with Pixso.
	</desc>
	<defs/>
	<path id="Vector" d="M45.74 3.51C44.46 3.51 43.25 3.86 42.22 4.46L42.22 1.75C42.22 0.78 41.43 0 40.46 0L12.34 0C11.37 0 10.58 0.78 10.58 1.75L10.58 4.48C9.54 3.86 8.32 3.51 7.03 3.51C3.15 3.51 0 6.66 0 10.54C0 13.5 0.87 16.36 2.53 18.81C5.35 22.97 8.83 24.06 11.71 25.21C13.37 29.34 16.73 32.62 20.92 34.17L19.62 42.42L19.37 42.42C16.46 42.42 14.09 44.78 14.09 47.69L14.09 56.48L12.34 56.48C11.37 56.48 10.58 57.27 10.58 58.24C10.58 59.21 11.37 60 12.34 60L40.46 60C41.43 60 42.22 59.21 42.22 58.24C42.22 57.27 41.43 56.48 40.46 56.48L38.7 56.48L38.7 47.69C38.7 44.78 36.34 42.42 33.43 42.42L33.18 42.42L31.88 34.17C36.07 32.62 39.44 29.33 41.09 25.19C43.82 24.1 47.38 23.02 50.23 18.81C51.89 16.36 52.77 13.5 52.77 10.54C52.77 6.66 49.61 3.51 45.74 3.51ZM10.57 20.96C6.28 19.25 3.51 15.16 3.51 10.54C3.51 8.6 5.09 7.03 7.03 7.03C8.96 7.03 10.54 8.6 10.54 10.54C10.54 10.67 10.55 10.79 10.58 10.9L10.58 19.33C10.58 19.9 10.61 20.45 10.67 21L10.57 20.96ZM35.19 56.48L17.61 56.48L17.61 52.96L35.19 52.96L35.19 56.48ZM33.43 45.93C34.4 45.93 35.19 46.72 35.19 47.69L35.19 49.45L17.61 49.45L17.61 47.69C17.61 46.72 18.4 45.93 19.37 45.93C20.32 45.93 31.19 45.93 33.43 45.93ZM23.18 42.42L24.34 35.02C25.02 35.11 25.7 35.15 26.4 35.15C27.1 35.15 27.78 35.11 28.45 35.02L29.62 42.42L23.18 42.42ZM38.7 19.33C38.7 26.12 33.18 31.64 26.4 31.64C19.61 31.64 14.09 26.12 14.09 19.33L14.09 10.54L38.7 10.54L38.7 19.33ZM38.7 7.03L14.09 7.03L14.09 3.51L38.7 3.51L38.7 7.03ZM42.2 20.96L42.13 20.99C42.19 20.44 42.22 19.89 42.22 19.33L42.22 10.54C42.22 8.6 43.8 7.03 45.74 7.03C47.67 7.03 49.25 8.6 49.25 10.54C49.25 15.16 46.48 19.25 42.2 20.96Z" fill="#242424" fill-opacity="1.000000" fill-rule="nonzero"/>
</svg>
