<svg width="60.000000" height="55.970703" viewBox="0 0 60 55.9707" fill="none" xmlns="http://www.w3.org/2000/svg" xmlns:xlink="http://www.w3.org/1999/xlink">
	<desc>
			Created with Pixso.
	</desc>
	<defs/>
	<path id="Vector" d="M55.34 29.08L55.34 1.76C55.34 0.79 54.55 0 53.58 0L6.29 0C5.32 0 4.53 0.79 4.53 1.76L4.53 31.26C3.67 31.38 2.84 31.72 2.1 32.26C-0.22 33.91 -0.77 37.59 1.18 39.86L9.13 49.5C14.05 55.26 19.28 55.97 27.05 55.97C33.72 55.97 36.7 56 42.51 54.67L48.17 53.32C49.09 54.6 50.55 55.43 52.18 55.43L54.97 55.43C57.74 55.43 60 53.05 60 50.14L60 34.36C60 31.57 57.94 29.28 55.34 29.08ZM47.41 32.71L45.06 31.52C41.19 29.57 36.72 29.49 32.79 31.32C31.72 31.74 29.38 33.16 28.17 33.11L20.01 33.11C17.3 33.11 15.1 35.31 15.1 38.02L15.1 39.31C15.09 39.29 15.07 39.27 15.06 39.26L9.23 32.93C8.88 32.55 8.48 32.23 8.06 31.97L8.06 14.46L22.5 14.46L22.5 20.93C22.5 21.91 23.29 22.7 24.26 22.7L35.4 22.7C36.38 22.7 37.17 21.91 37.17 20.93L37.17 14.46L51.81 14.46L51.81 29.08C49.75 29.24 48.03 30.72 47.41 32.71ZM26.03 14.46L33.64 14.46L33.64 19.17L26.03 19.17L26.03 14.46ZM51.81 10.93L37.17 10.93L37.17 3.53L51.81 3.53L51.81 10.93L51.81 10.93ZM33.64 3.53L33.64 10.93L26.03 10.93L26.03 3.53L33.64 3.53ZM22.5 3.53L22.5 10.93L8.06 10.93L8.06 3.53L22.5 3.53ZM41.69 51.24C36.32 52.47 33.09 52.42 27.11 52.42C19.82 52.42 16.29 52.3 11.85 47.25L3.9 37.62C2.52 35.82 5.02 33.69 6.63 35.32L12.46 41.65C14 43.27 15.94 44.17 18.33 44.22L34.48 44.22C35.46 44.22 36.25 43.43 36.25 42.46C36.25 41.48 35.46 40.69 34.48 40.69L18.63 40.69L18.63 38.02C18.63 37.26 19.25 36.64 20.01 36.64L28.17 36.64C30.01 36.77 32.66 35.24 34.28 34.52C37.22 33.15 40.57 33.21 43.46 34.67L47.16 36.55L47.16 49.93L41.69 51.24ZM56.47 50.14C56.47 51.11 55.8 51.9 54.97 51.9L52.18 51.9C51.36 51.9 50.69 51.11 50.69 50.14L50.69 34.36C50.69 33.39 51.36 32.6 52.18 32.6L54.97 32.6C55.8 32.6 56.47 33.39 56.47 34.36L56.47 50.14Z" fill="#242424" fill-opacity="1.000000" fill-rule="nonzero"/>
</svg>
