<svg width="16.333336" height="16.333328" viewBox="0 0 16.3333 16.3333" fill="none" xmlns="http://www.w3.org/2000/svg" xmlns:xlink="http://www.w3.org/1999/xlink">
	<desc>
			Created with Pixso.
	</desc>
	<defs/>
	<path id="Vector" d="M12.83 16.33C11.9 16.33 11.01 15.96 10.35 15.3C9.7 14.65 9.33 13.76 9.33 12.83C9.33 11.9 9.7 11.01 10.35 10.35C11.01 9.7 11.9 9.33 12.83 9.33C13.76 9.33 14.65 9.7 15.3 10.35C15.96 11.01 16.33 11.9 16.33 12.83C16.33 13.76 15.96 14.65 15.3 15.3C14.65 15.96 13.76 16.33 12.83 16.33ZM3.5 16.33C2.57 16.33 1.68 15.96 1.02 15.3C0.36 14.65 0 13.76 0 12.83C0 11.9 0.36 11.01 1.02 10.35C1.68 9.7 2.57 9.33 3.5 9.33C4.42 9.33 5.31 9.7 5.97 10.35C6.63 11.01 7 11.9 7 12.83C7 13.76 6.63 14.65 5.97 15.3C5.31 15.96 4.42 16.33 3.5 16.33ZM12.83 7C11.9 7 11.01 6.63 10.35 5.97C9.7 5.31 9.33 4.42 9.33 3.5C9.33 2.57 9.7 1.68 10.35 1.02C11.01 0.36 11.9 0 12.83 0C13.76 0 14.65 0.36 15.3 1.02C15.96 1.68 16.33 2.57 16.33 3.5C16.33 4.42 15.96 5.31 15.3 5.97C14.65 6.63 13.76 7 12.83 7ZM3.5 7C2.57 7 1.68 6.63 1.02 5.97C0.36 5.31 0 4.42 0 3.5C0 2.57 0.36 1.68 1.02 1.02C1.68 0.36 2.57 0 3.5 0C4.42 0 5.31 0.36 5.97 1.02C6.63 1.68 7 2.57 7 3.5C7 4.42 6.63 5.31 5.97 5.97C5.31 6.63 4.42 7 3.5 7Z" fill="#000000" fill-opacity="1.000000" fill-rule="nonzero"/>
</svg>
