<svg width="52.941162" height="60.000000" viewBox="0 0 52.9412 60" fill="none" xmlns="http://www.w3.org/2000/svg" xmlns:xlink="http://www.w3.org/1999/xlink">
	<desc>
			Created with Pixso.
	</desc>
	<defs/>
	<path id="Vector" d="M51.16 23.96C50.76 10.68 39.84 0 26.47 0C13.09 0 2.17 10.68 1.77 23.96L0 25.73L0 37.78L1.76 39.55L1.76 47.76C1.76 52.56 5.67 56.47 10.47 56.47L12.65 56.47C13.38 58.52 15.34 60 17.64 60L21.17 60C23.47 60 25.44 58.52 26.16 56.46C26.26 56.46 26.37 56.47 26.47 56.47C34.99 56.47 42.12 50.39 43.76 42.35L48.37 42.35L52.94 37.78L52.94 25.73L51.16 23.96ZM26.47 3.52C36.94 3.52 45.66 11.17 47.35 21.17L43.76 21.17C42.12 13.13 34.99 7.05 26.47 7.05C17.94 7.05 10.81 13.13 9.17 21.17L5.58 21.17C7.27 11.17 15.99 3.52 26.47 3.52ZM40.14 21.17C34.43 21.15 30.4 21.5 27.08 16.65L25.47 14.29L24.08 16.79C22.06 20.43 19.34 21.17 15.88 21.17L12.79 21.17C14.37 15.09 19.9 10.58 26.47 10.58C33.03 10.58 38.57 15.09 40.14 21.17ZM8.82 38.82L6.02 38.82L3.52 36.32L3.52 27.2L6.02 24.7L8.82 24.7L8.82 38.82ZM5.29 47.76L5.29 42.35L9.17 42.35C9.83 45.64 11.42 48.66 13.78 51.09C13.29 51.61 12.9 52.24 12.65 52.94L10.47 52.94C7.61 52.94 5.29 50.61 5.29 47.76ZM21.17 56.47L17.64 56.47C16.67 56.47 15.88 55.67 15.88 54.7C15.88 53.73 16.67 52.94 17.64 52.94L21.17 52.94C22.14 52.94 22.94 53.73 22.94 54.7C22.94 55.67 22.14 56.47 21.17 56.47ZM40.58 38.82C40.58 46.6 34.25 52.94 26.47 52.94C26.36 52.94 26.26 52.93 26.16 52.93C25.43 50.88 23.47 49.41 21.17 49.41C17.55 49.41 17.61 49.39 17.15 49.43C14.09 46.74 12.35 42.92 12.35 38.82L12.35 24.7L15.88 24.7C19 24.7 22.8 24.19 25.75 20.6C29.63 24.67 34.38 24.7 38.64 24.7L40.58 24.7L40.58 38.82ZM49.41 36.32L46.91 38.82L44.11 38.82L44.11 24.7L46.91 24.7L49.41 27.2L49.41 36.32Z" fill="#242424" fill-opacity="1.000000" fill-rule="nonzero"/>
</svg>
