<svg width="21.000000" height="19.500000" viewBox="0 0 21 19.5" fill="none" xmlns="http://www.w3.org/2000/svg" xmlns:xlink="http://www.w3.org/1999/xlink">
	<desc>
			Created with Pixso.
	</desc>
	<defs/>
	<path id="Vector" d="M3 4.5L18 4.5C18.79 4.5 19.55 4.81 20.12 5.37C20.68 5.94 21 6.7 21 7.5L21 12C21 12.79 20.68 13.55 20.12 14.12C19.55 14.68 18.79 15 18 15L3 15C2.2 15 1.44 14.68 0.87 14.12C0.31 13.55 0 12.79 0 12L0 7.5C0 6.7 0.31 5.94 0.87 5.37C1.44 4.81 2.2 4.5 3 4.5ZM3 6C2.6 6 2.22 6.15 1.93 6.43C1.65 6.72 1.5 7.1 1.5 7.5L1.5 12C1.5 12.39 1.65 12.77 1.93 13.06C2.22 13.34 2.6 13.5 3 13.5L18 13.5C18.39 13.5 18.77 13.34 19.06 13.06C19.34 12.77 19.5 12.39 19.5 12L19.5 7.5C19.5 7.1 19.34 6.72 19.06 6.43C18.77 6.15 18.39 6 18 6L3 6ZM0 0.75C0 0.55 0.07 0.36 0.21 0.21C0.36 0.07 0.55 0 0.75 0L20.25 0C20.44 0 20.63 0.07 20.78 0.21C20.92 0.36 21 0.55 21 0.75C21 0.94 20.92 1.13 20.78 1.28C20.63 1.42 20.44 1.5 20.25 1.5L0.75 1.5C0.55 1.5 0.36 1.42 0.21 1.28C0.07 1.13 0 0.94 0 0.75ZM0 18.75C0 18.55 0.07 18.36 0.21 18.21C0.36 18.07 0.55 18 0.75 18L20.25 18C20.44 18 20.63 18.07 20.78 18.21C20.92 18.36 21 18.55 21 18.75C21 18.94 20.92 19.13 20.78 19.28C20.63 19.42 20.44 19.5 20.25 19.5L0.75 19.5C0.55 19.5 0.36 19.42 0.21 19.28C0.07 19.13 0 18.94 0 18.75Z" fill="#000000" fill-opacity="1.000000" fill-rule="nonzero"/>
</svg>
